# xmcd
#
# Track frame offsets:
#	150
#	16732
#	34482
#	52104
#	70118
#	82737
#	102556
#	119112
#	136349
#	153294
#	167733
#	182485
#	199076
#	216220
#
# Disc length: 3069 seconds
#
# Revision: 0
# Processed by: cddbd v1.5.1PL2 Copyright (c) Steve Scherf et al.
# Submitted via: dBpowerAMP V4.0
#
DISCID=c20bfb0e
DTITLE=Emburgas Zeni - To saku no sirds
DYEAR=2005
DGENRE=Country
TTITLE0=Tik pret sauli
TTITLE1=Ja tu vientuls
TTITLE2=To saku no sirds
TTITLE3=Luk, zvaigzne krit
TTITLE4=Kas labaks par visu
TTITLE5=Bez Tevis
TTITLE6=Nav atbildes
TTITLE7=Dvesele veja
TTITLE8=Sirds
TTITLE9=Mamma
TTITLE10=Varaviksnes sietie
TTITLE11=Zudusais laiks
TTITLE12=Alus putas
TTITLE13=Krustceles
EXTD=
EXTT0=
EXTT1=
EXTT2=
EXTT3=
EXTT4=
EXTT5=
EXTT6=
EXTT7=
EXTT8=
EXTT9=
EXTT10=
EXTT11=
EXTT12=
EXTT13=
PLAYORDER=
